<svg width="32" height="32" viewBox="0 0 32 32" fill="none" xmlns="http://www.w3.org/2000/svg">
<circle cx="16" cy="16" r="16" fill="#2C2D2D"/>
<g clip-path="url(#clip0_15_679)">
<path d="M23.7571 12.8235C22.4244 13.6471 21.6013 15.0588 21.6013 16.6275C21.6013 18.3922 22.6596 20 24.2667 20.6667C23.9531 21.6863 23.4827 22.6275 22.8948 23.4902C22.0324 24.7059 21.1309 25.9608 19.7982 25.9608C18.4655 25.9608 18.0736 25.1765 16.5057 25.1765C14.977 25.1765 14.4283 26 13.174 26C11.9197 26 11.0573 24.8627 10.0774 23.451C8.78394 21.4902 8.0392 19.2157 8 16.8235C8 12.9412 10.5086 10.8627 13.0172 10.8627C14.3499 10.8627 15.4474 11.7255 16.2705 11.7255C17.0545 11.7255 18.3088 10.8235 19.7982 10.8235C21.3661 10.7843 22.8556 11.5294 23.7571 12.8235ZM19.0927 9.17647C19.759 8.39216 20.1118 7.41176 20.151 6.39216C20.151 6.27451 20.151 6.11765 20.1118 6C18.9751 6.11765 17.9168 6.66667 17.172 7.52941C16.5057 8.27451 16.1137 9.21569 16.0745 10.2353C16.0745 10.3529 16.0745 10.4706 16.1137 10.5882C16.1921 10.5882 16.3097 10.6275 16.3881 10.6275C17.4464 10.549 18.4263 10 19.0927 9.17647Z" fill="white"/>
</g>
<defs>
<clipPath id="clip0_15_679">
<rect width="16.2667" height="20" fill="white" transform="translate(8 6)"/>
</clipPath>
</defs>
</svg>
